<?xml version="1.0" encoding="UTF-8" standalone="no"?>
<!-- Created with Inkscape (http://www.inkscape.org/) -->

<svg
   xmlns:dc="http://purl.org/dc/elements/1.1/"
   xmlns:cc="http://creativecommons.org/ns#"
   xmlns:rdf="http://www.w3.org/1999/02/22-rdf-syntax-ns#"
   xmlns:svg="http://www.w3.org/2000/svg"
   xmlns="http://www.w3.org/2000/svg"
   xmlns:xlink="http://www.w3.org/1999/xlink"
   xmlns:sodipodi="http://sodipodi.sourceforge.net/DTD/sodipodi-0.dtd"
   xmlns:inkscape="http://www.inkscape.org/namespaces/inkscape"
   id="svg2"
   version="1.1"
   inkscape:version="0.91 r13725"
   width="350"
   height="350"
   viewBox="0 0 350 350"
   sodipodi:docname="donatal.svg"
   inkscape:export-filename="/home/alexandre/Git/AppInventor/DONATAL/data/icon-64.png"
   inkscape:export-xdpi="16.457144"
   inkscape:export-ydpi="16.457144">
  <metadata
     id="metadata8">
    <rdf:RDF>
      <cc:Work
         rdf:about="">
        <dc:format>image/svg+xml</dc:format>
        <dc:type
           rdf:resource="http://purl.org/dc/dcmitype/StillImage" />
        <dc:title></dc:title>
      </cc:Work>
    </rdf:RDF>
  </metadata>
  <defs
     id="defs6" />
  <sodipodi:namedview
     pagecolor="#ffffff"
     bordercolor="#666666"
     borderopacity="1"
     objecttolerance="10"
     gridtolerance="10"
     guidetolerance="10"
     inkscape:pageopacity="0"
     inkscape:pageshadow="2"
     inkscape:window-width="1280"
     inkscape:window-height="751"
     id="namedview4"
     showgrid="false"
     inkscape:zoom="0.65186406"
     inkscape:cx="9.238263"
     inkscape:cy="110.82471"
     inkscape:window-x="0"
     inkscape:window-y="0"
     inkscape:window-maximized="1"
     inkscape:current-layer="svg2"
     fit-margin-top="0"
     fit-margin-left="0"
     fit-margin-right="0"
     fit-margin-bottom="0" />
  <image
     sodipodi:absref="/home/alexandre/Git/AppInventor/donatal.png"
     xlink:href="donatal.png"
     y="-1094.083"
     x="-2089.9224"
     id="image10"
     style="image-rendering:optimizeQuality"
     preserveAspectRatio="none"
     height="512"
     width="512" />
  <path
     style="fill:#000000"
     d="m -430.98312,272.23741 c 0,-0.451 -1.62154,-2.71441 -3.60343,-5.0298 -6.33967,-7.40648 -6.65134,-7.46365 -44.89657,-8.23545 -42.48991,-0.85745 -50.99873,-2.43493 -67.14493,-12.44818 -11.21307,-6.95391 -18.2702,-14.47309 -23.51417,-25.05369 l -4.3409,-8.75853 -0.5,-80.07717 -0.5,-80.077175 -2.72,-5.80531 c -1.51901,-3.24204 -5.38248,-8.57801 -8.75,-12.08493 -3.3165,-3.45379 -6.03,-6.5789 -6.03,-6.94469 0,-0.36579 73.125,-0.66507 162.5,-0.66507 89.375,0 162.5,0.35867 162.5,0.79705 0,0.43838 -1.82381,2.57588 -4.05292,4.75 -4.85839,4.73856 -9.27596,11.41574 -11.57496,17.49564 -1.52501,4.03302 -1.69433,11.88204 -1.77879,82.457305 l -0.0933,78 -2.912,7 c -7.30135,17.55134 -23.76505,31.59267 -43.088,36.74829 -3.3,0.88048 -8.025,2.1583 -10.5,2.8396 -2.9454,0.81078 -16.41859,1.4414 -39,1.82541 l -34.5,0.5867 -4.77239,2.80528 c -2.62482,1.5429 -5.94712,4.5804 -7.38289,6.75 -2.62513,3.96679 -3.34475,4.63908 -3.34475,3.12472 z m -33.5,-99.78165 c 27.0043,-21.24632 37.461,-29.49719 50.56497,-39.89835 6.92921,-5.5 19.98677,-15.82668 29.0168,-22.94817 24.28124,-19.149295 36.17365,-28.565475 38.41823,-30.418835 1.1,-0.90828 9.08567,-7.19977 17.74592,-13.9811 8.66026,-6.78133 15.99932,-12.73968 16.30902,-13.24079 0.32743,-0.5298 -4.73158,-0.9111 -12.08819,-0.9111 -13.91692,0 -13.11459,-0.28606 -21.96675,7.83181 -2.2,2.0175 -8.55752,7.58286 -14.12783,12.36745 -5.5703,4.78459 -10.7453,9.29484 -11.5,10.02278 -0.75469,0.72794 -7.89717,6.92689 -15.87217,13.77545 -7.975,6.848555 -14.95,12.939025 -15.5,13.534365 -0.55,0.59535 -5.725,5.10673 -11.5,10.0253 -5.775,4.91856 -10.95,9.4281 -11.5,10.02119 -0.55,0.59309 -5.95,5.31216 -12,10.48682 -6.05,5.17465 -11.48691,9.8644 -12.08203,10.42165 -5.95875,5.57962 -36.93657,32.092 -37.79433,32.34629 -1.16429,0.34515 10.82246,-11.59779 32.4517,-32.33311 22.32055,-21.39805 60.10299,-57.709555 72.41425,-69.595035 6.60572,-6.37727 16.06041,-15.47855 21.01041,-20.22506 l 9,-8.63002 -10.1577,-0.0249 -10.1577,-0.025 -10.90735,11.25 c -16.19243,16.70111 -28.85552,29.95233 -31.11256,32.55757 -14.32057,15.389885 -27.33275,28.928865 -42.66469,45.077515 23.28065,-36.73552 -18.27776,17.22758 -31.7709,33.59985 l -2.53003,2.98495 1.88799,3.70076 c 1.48734,2.91544 2.58032,3.78656 5.15047,4.10502 1.79436,0.22234 3.71247,0.47329 4.26247,0.55767 0.55,0.0844 8.2,-5.51137 17,-12.43499 z m -25.21945,-2.06077 c 1.7707,-2.01434 4.34445,-5.10948 5.71945,-6.8781 27.50278,-38.21741 67.1123,-73.151405 93,-111.911725 0,-0.30126 -3.32264,-0.54775 -7.38364,-0.54775 -8.56234,0 -7.73691,-0.67117 -22.11636,17.98304 -8.72077,11.3133 -14.13574,18.2256 -28.60676,36.516955 -5.22152,6.6 -15.77108,20.05198 -23.44346,29.89329 -7.67238,9.84132 -16.32792,20.93076 -19.23453,24.64321 l -5.28474,6.74992 1.71996,3.60679 c 0.94597,1.98373 1.87536,3.60679 2.06529,3.60679 0.18994,0 1.79409,-1.64809 3.56479,-3.66242 z m 20.71945,-148.953665 c -17.71212,-0.44864 -37.9018,-2.426 -39.30895,-3.84989 -0.65508,-0.66288 -5.01605,-7.13523 -9.69105,-14.3830101 -4.675,-7.247781 -12.67361,-19.5341109 -17.77468,-27.3029569 -10.48849,-15.973776 -10.43626,-14.235752 -0.58521,-19.473608 4.32218,-2.298122 4.38804,-2.302233 5.60727,-0.349941 1.36391,2.183977 5.06247,2.568589 9.28013,0.965038 l 2.6577,-1.010458 -2.0926,-3.546702 c -1.15094,-1.950686 -2.09261,-3.695399 -2.09261,-3.87714 0,-0.181741 3.7125,-1.803438 8.25,-3.603773 4.5375,-1.800335 8.75995,-3.662401 9.38322,-4.137926 0.71818,-0.547939 1.37904,-0.223977 1.80442,0.884552 0.41265,1.075353 0.0633,2.193669 -0.90695,2.903124 -1.42973,1.045443 -1.41134,1.453368 0.19557,4.337082 1.74303,3.127988 1.86897,3.171916 7.27374,2.537122 3.025,-0.355288 5.87939,-1.009497 6.3431,-1.453799 1.09221,-1.04651 -2.15679,-6.021624 -3.93243,-6.021624 -0.74762,0 -2.02117,-1.279896 -2.83011,-2.844213 l -1.4708,-2.844214 12.01919,-3.526061 12.01919,-3.526062 0.92593,2.435375 c 1.33579,3.513385 1.1419,5.305175 -0.57407,5.305175 -1.93382,0 -1.8907,1.112833 0.21413,5.526709 1.34458,2.819614 2.15304,3.476639 3.75,3.047581 1.11973,-0.300839 2.82337,-0.553125 3.78587,-0.560635 2.60294,-0.02031 2.22588,-4.662032 -0.59393,-7.311404 -1.28915,-1.211238 -2.60182,-3.834034 -2.91703,-5.828436 l -0.57311,-3.626184 7.16703,-1.185007 c 3.94187,-0.651753 9.41704,-1.783733 12.16704,-2.515509 2.75,-0.731777 5.30379,-1.041741 5.67508,-0.688809 0.3713,0.352932 0.80071,3.114496 0.95425,6.13681 0.21385,4.209307 -0.0666,5.561711 -1.19867,5.779721 -1.08764,0.209461 -1.37787,1.332901 -1.09922,4.254885 l 0.37863,3.970278 5.39497,0 5.39496,0 0,-4.5 c 0,-3.151515 -0.41204,-4.5 -1.375,-4.5 -1.41993,0 -2.625,-4.15257 -2.625,-9.045545 0,-2.251744 0.53494,-2.90088 2.75,-3.33705 6.86294,-1.351391 23.8797,-1.529888 35.75,-0.375 l 13,1.264798 -0.03,5.84894 c -0.0223,4.352878 -0.46994,6.17064 -1.75,7.106641 -1.08127,0.790647 -1.72,2.609346 -1.72,4.897459 0,3.354839 0.22844,3.639757 2.91821,3.639757 1.60502,0 3.58494,0.255847 4.39983,0.568548 1.03985,0.399029 1.83935,-0.515405 2.68142,-3.066904 1.01463,-3.074362 0.9598,-3.81805 -0.35524,-4.818548 -1.40064,-1.065627 -1.37548,-1.706317 0.25336,-6.45275 0.99462,-2.898309 2.10125,-5.562508 2.45918,-5.920442 0.80664,-0.806637 19.72917,3.376025 20.9936,4.640453 1.18478,1.18478 -1.86495,9.036884 -4.29164,11.049643 -0.99466,0.825 -2.08415,2.680887 -2.42108,4.124194 -0.56134,2.404648 -0.29991,2.676506 3.12488,3.249466 2.05562,0.343899 4.7342,0.898869 5.95241,1.233267 1.82603,0.50124 2.52404,-0.0402 3.97534,-3.083608 1.62882,-3.415664 1.63703,-3.760649 0.10985,-4.615303 -1.49062,-0.834192 -1.40537,-1.362401 0.87981,-5.451032 1.73423,-3.102876 2.89059,-4.23949 3.67522,-3.612485 0.62967,0.503166 5.19485,2.190663 10.14485,3.749993 4.95,1.55933 9.15792,2.933896 9.35093,3.05459 1.00724,0.629851 -4.46631,8.350918 -5.92006,8.350918 -0.93547,0 -2.42365,1.103133 -3.30707,2.451406 l -1.60623,2.451406 5.96657,1.173851 c 3.28162,0.645618 6.3091,1.229985 6.72774,1.298594 0.41865,0.06861 1.38669,-1.18036 2.15121,-2.775485 1.28018,-2.671008 1.21661,-3.031049 -0.80434,-4.555459 -2.14276,-1.616285 -2.1513,-1.708456 -0.36273,-3.917235 l 1.83165,-2.262004 9.52443,4.952684 c 8.38821,4.361858 11.26059,7.087896 7.61457,7.226637 -0.64167,0.02442 -10.61667,14.311917 -22.16667,31.75 l -21,31.705605 -7,0.71199 c -7.73638,0.78689 -92.74115,1.67239 -112.5,1.17192 z m 60,-79.767279 c 0,-3.542364 -0.38372,-4.483715 -2,-4.90638 -1.72397,-0.450829 -2,-1.364016 -2,-6.616631 0,-5.833195 -0.10684,-6.09362 -2.5,-6.09362 -2.38889,0 -2.5,0.266667 -2.5,6 0,3.333333 -0.44444,6 -1,6 -0.55,0 -1,2.25 -1,5 l 0,5 5.5,0 5.5,0 z"
     id="path4138"
     inkscape:connector-curvature="0"
     sodipodi:nodetypes="ssssscccsssssssscsssscssscssssssssssssssscssscccsccccsscccsccssssscsssssssssscssssssssssscccssssssscsssssscccssssscsssssssssssssssssssssscssssscssscssssssssscccs" />
  <g
     id="g4219"
     transform="translate(543.67186,-978.22758)">
    <path
       inkscape:connector-curvature="0"
       id="path4197"
       d="m -357.42383,978.53906 c -32.07531,1.79121 -64.12746,8.64289 -93.54382,21.63374 -9.22288,5.735 -23.19766,7.1688 -26.93595,19.0243 1.68285,11.3239 12.69496,18.0195 16.89558,28.3545 6.72659,8.0563 9.39749,20.6495 19.44909,25.1919 10.53454,3.6898 21.96808,2.3618 32.9107,3.4778 33.92773,0.7543 67.87326,-0.036 101.79692,-0.5344 10.70083,-0.2483 22.99593,1.2525 27.66411,-10.6753 11.742,-18.5978 23.93687,-36.9213 37.10535,-54.5522 -8.36727,-10.1687 -22.15522,-12.17659 -33.51484,-17.44319 -25.62584,-9.09327 -52.6815,-14.31239 -79.89316,-14.53525 l -1.93398,0.058 0,10e-5 z"
       style="fill:#949295;fill-opacity:1" />
    <path
       id="path4195"
       d="m -351.67188,979.04883 c 0.94626,0 1.5304,0.0472 1.89649,0.45703 l -3.79688,0 c 0.366,-0.40893 0.95242,-0.45703 1.90039,-0.45703 z"
       style="fill:#000000"
       inkscape:connector-curvature="0" />
    <path
       id="path4193"
       d="m -366.67188,1082.0488 c -89.375,0 -162.5,0.2983 -162.5,0.6641 0,0.3658 2.71474,3.4915 6.03126,6.9453 3.36752,3.5069 7.23099,8.8438 8.75,12.0859 l 2.71874,5.8047 0.5,80.0762 0.5,80.0781 4.3418,8.7578 c 5.24397,10.5806 12.3006,18.1008 23.51367,25.0547 16.1462,10.0132 24.65462,11.5899 67.14453,12.4473 38.24524,0.7718 38.55682,0.8298 44.89649,8.2363 1.98189,2.3154 3.60352,4.5783 3.60351,5.0293 0,1.5144 0.72058,0.8418 3.34571,-3.125 1.43577,-2.1696 4.75799,-5.2071 7.38281,-6.75 l 4.77148,-2.8047 34.5,-0.5879 c 22.58142,-0.384 36.05461,-1.0134 39,-1.8242 2.47501,-0.6813 7.2,-1.9593 10.5,-2.8398 19.32296,-5.1556 35.78655,-19.1968 43.0879,-36.7481 l 2.9121,-7 0.0938,-78 c 0.0845,-70.5753 0.25428,-78.424 1.77929,-82.457 2.299,-6.0799 6.71583,-12.7575 11.57422,-17.4961 2.22911,-2.1741 4.05273,-4.3116 4.05273,-4.75 0,-0.4383 -73.12499,-0.7969 -162.5,-0.7969 z"
       style="fill:#244d95;fill-opacity:1"
       inkscape:connector-curvature="0" />
    <path
       inkscape:connector-curvature="0"
       id="path4168"
       d="m -334.7793,1106.0332 c 26.28068,1.7607 52.81345,-3.0434 78.92234,1.6864 -0.85184,9.8581 -11.47763,13.5602 -18.02876,19.2358 -23.61739,17.7606 -45.78294,37.3471 -69.3551,55.1683 -23.60769,18.5125 -47.11736,37.1501 -70.50236,55.9432 -9.9533,3.1076 -20.45379,-8.4495 -16.40603,-18.0597 2.22646,-9.8847 8.89704,-17.8385 16.45898,-24.2203 12.90438,-13.5897 23.18567,-29.3706 35.01067,-43.8694 11.82144,-15.2033 23.84199,-30.2663 36.58762,-44.7099 2.29797,-0.9656 4.82816,-1.3683 7.31264,-1.1744 z"
       style="fill:#ffffff" />
  </g>
</svg>
